<svg width="357" height="40" viewBox="0 0 357 40" fill="none" xmlns="http://www.w3.org/2000/svg">
<path d="M28.96 8.61C30.52 8.49 32.11 8.43 33.73 8.43C35.37 8.43 36.78 8.83 37.96 9.63C39.16 10.43 39.76 11.59 39.76 13.11C39.76 14.25 39.44 15.31 38.8 16.29C38.18 17.27 37.43 18.01 36.55 18.51C37.97 18.95 39.16 19.71 40.12 20.79C41.08 21.87 41.56 23.08 41.56 24.42C41.56 26.3 40.96 27.73 39.76 28.71C38.58 29.69 36.95 30.18 34.87 30.18C32.81 30.18 30.84 30.1 28.96 29.94V8.61ZM35.05 28.89C36.51 28.89 37.71 28.49 38.65 27.69C39.59 26.87 40.06 25.83 40.06 24.57C40.06 23.31 39.6 22.22 38.68 21.3C37.78 20.38 36.54 19.75 34.96 19.41C34.22 19.25 33.36 19.17 32.38 19.17C31.42 19.17 30.76 19.17 30.4 19.17V28.74C31.28 28.84 32.83 28.89 35.05 28.89ZM38.32 13.08C38.32 11.98 37.86 11.13 36.94 10.53C36.04 9.93 35.02 9.63 33.88 9.63C32.76 9.63 31.6 9.67 30.4 9.75V17.94C30.66 17.94 31.15 17.94 31.87 17.94C32.59 17.94 33.65 18 35.05 18.12C35.95 17.64 36.72 16.95 37.36 16.05C38 15.15 38.32 14.16 38.32 13.08ZM47.4672 30V10.53H48.8472V28.74H57.7872V30H47.4672ZM69.2901 30.3C66.5101 30.3 64.1801 29.33 62.3001 27.39C60.4201 25.45 59.4801 23.08 59.4801 20.28C59.4801 17.46 60.4201 15.08 62.3001 13.14C64.1801 11.2 66.5101 10.23 69.2901 10.23C72.0701 10.23 74.4001 11.2 76.2801 13.14C78.1601 15.08 79.1001 17.46 79.1001 20.28C79.1001 23.08 78.1601 25.45 76.2801 27.39C74.4001 29.33 72.0701 30.3 69.2901 30.3ZM69.2901 11.46C66.8901 11.46 64.8901 12.31 63.2901 14.01C61.7101 15.71 60.9201 17.8 60.9201 20.28C60.9201 22.74 61.7101 24.82 63.2901 26.52C64.8901 28.2 66.8901 29.04 69.2901 29.04C71.7101 29.04 73.7101 28.2 75.2901 26.52C76.8701 24.82 77.6601 22.74 77.6601 20.28C77.6601 17.8 76.8701 15.71 75.2901 14.01C73.7101 12.31 71.7101 11.46 69.2901 11.46ZM93.7237 30.3C90.9437 30.3 88.6137 29.33 86.7337 27.39C84.8537 25.45 83.9137 23.08 83.9137 20.28C83.9137 17.46 84.8537 15.08 86.7337 13.14C88.6137 11.2 90.9437 10.23 93.7237 10.23C96.5037 10.23 98.8337 11.2 100.714 13.14C102.594 15.08 103.534 17.46 103.534 20.28C103.534 23.08 102.594 25.45 100.714 27.39C98.8337 29.33 96.5037 30.3 93.7237 30.3ZM93.7237 11.46C91.3237 11.46 89.3237 12.31 87.7237 14.01C86.1437 15.71 85.3537 17.8 85.3537 20.28C85.3537 22.74 86.1437 24.82 87.7237 26.52C89.3237 28.2 91.3237 29.04 93.7237 29.04C96.1437 29.04 98.1437 28.2 99.7237 26.52C101.304 24.82 102.094 22.74 102.094 20.28C102.094 17.8 101.304 15.71 99.7237 14.01C98.1437 12.31 96.1437 11.46 93.7237 11.46ZM118.577 28.98H117.767L112.097 15.21C111.857 14.67 111.617 14.04 111.377 13.32C111.377 13.34 111.357 13.45 111.317 13.65C111.297 13.85 111.267 14.12 111.227 14.46C111.187 14.78 111.147 15.05 111.107 15.27L108.857 30H107.507L110.687 10.41H111.497L117.557 24.78C118.037 25.98 118.277 26.61 118.277 26.67C118.417 26.25 118.687 25.63 119.087 24.81L125.837 10.41H126.647L129.617 30H128.177L126.047 15.21C125.907 14.23 125.837 13.58 125.837 13.26L124.967 15.24L118.577 28.98ZM134.772 30V10.53H136.152V30H134.772ZM143.356 30V10.41H144.016L156.796 25.11C157.256 25.63 157.676 26.15 158.056 26.67C158.456 27.17 158.666 27.43 158.686 27.45C158.646 26.97 158.626 26.03 158.626 24.63V10.53H160.006V30.12H159.346L146.326 15.18L144.676 13.17C144.716 13.57 144.736 14.51 144.736 15.99V30H143.356ZM175.334 11.46C173.114 11.46 171.244 12.31 169.724 14.01C168.224 15.69 167.474 17.76 167.474 20.22C167.474 22.68 168.324 24.77 170.024 26.49C171.724 28.19 173.724 29.04 176.024 29.04C178.344 29.04 180.144 28.77 181.424 28.23V20.22H182.804V28.86C181.244 29.82 179.034 30.3 176.174 30.3C173.314 30.3 170.904 29.33 168.944 27.39C166.984 25.45 166.004 23.07 166.004 20.25C166.004 17.41 166.884 15.03 168.644 13.11C170.424 11.19 172.714 10.23 175.514 10.23C177.774 10.23 179.984 10.58 182.144 11.28L181.784 12.42C179.704 11.78 177.554 11.46 175.334 11.46ZM206.073 24.81L212.283 8.97H213.153L218.583 24.93C219.003 26.19 219.283 27.1 219.423 27.66C219.583 27 219.863 26.1 220.263 24.96L225.783 8.55H227.283L219.813 30.18H218.973L213.423 14.28C213.343 14.02 213.253 13.76 213.153 13.5C213.073 13.24 213.003 13.01 212.943 12.81C212.883 12.61 212.823 12.44 212.763 12.3L212.643 11.94C212.623 11.84 212.613 11.78 212.613 11.76C212.373 12.48 212.063 13.31 211.683 14.25L205.413 30.18H204.573L197.043 8.55H198.633L204.123 24.69C204.383 25.41 204.593 26.06 204.753 26.64C204.933 27.22 205.033 27.54 205.053 27.6C205.153 27.14 205.493 26.21 206.073 24.81ZM239.564 30.3C236.784 30.3 234.454 29.33 232.574 27.39C230.694 25.45 229.754 23.08 229.754 20.28C229.754 17.46 230.694 15.08 232.574 13.14C234.454 11.2 236.784 10.23 239.564 10.23C242.344 10.23 244.674 11.2 246.554 13.14C248.434 15.08 249.374 17.46 249.374 20.28C249.374 23.08 248.434 25.45 246.554 27.39C244.674 29.33 242.344 30.3 239.564 30.3ZM239.564 11.46C237.164 11.46 235.164 12.31 233.564 14.01C231.984 15.71 231.194 17.8 231.194 20.28C231.194 22.74 231.984 24.82 233.564 26.52C235.164 28.2 237.164 29.04 239.564 29.04C241.984 29.04 243.984 28.2 245.564 26.52C247.144 24.82 247.934 22.74 247.934 20.28C247.934 17.8 247.144 15.71 245.564 14.01C243.984 12.31 241.984 11.46 239.564 11.46ZM255.387 30V10.41H256.047L268.827 25.11C269.287 25.63 269.707 26.15 270.087 26.67C270.487 27.17 270.697 27.43 270.717 27.45C270.677 26.97 270.657 26.03 270.657 24.63V10.53H272.037V30.12H271.377L258.357 15.18L256.707 13.17C256.747 13.57 256.767 14.51 256.767 15.99V30H255.387ZM285.475 28.98C288.035 28.98 290.085 28.29 291.625 26.91C293.185 25.53 293.965 23.45 293.965 20.67C293.965 17.89 293.085 15.68 291.325 14.04C289.585 12.4 287.435 11.58 284.875 11.58C283.055 11.58 281.655 11.62 280.675 11.7V28.77C281.875 28.91 283.475 28.98 285.475 28.98ZM284.875 10.35C287.875 10.35 290.375 11.28 292.375 13.14C294.395 14.98 295.405 17.49 295.405 20.67C295.405 23.85 294.475 26.24 292.615 27.84C290.775 29.44 288.395 30.24 285.475 30.24C283.455 30.24 281.375 30.14 279.235 29.94V10.53C280.835 10.41 282.715 10.35 284.875 10.35ZM301.413 30V10.53H310.503V11.73H302.793V18.81H309.753V19.98H302.793V28.74H310.803V30H301.413ZM316.325 30V10.62C318.045 10.48 319.505 10.41 320.705 10.41C322.545 10.41 324.065 10.89 325.265 11.85C326.465 12.79 327.065 14.14 327.065 15.9C327.065 17.08 326.725 18.17 326.045 19.17C325.365 20.17 324.595 20.98 323.735 21.6C326.115 24.76 327.585 26.65 328.145 27.27C329.285 28.45 330.525 29.12 331.865 29.28L331.835 30.21C330.715 30.19 329.805 30.03 329.105 29.73C328.405 29.41 327.705 28.88 327.005 28.14C326.325 27.4 324.815 25.41 322.475 22.17C320.855 22.17 319.265 22.12 317.705 22.02V30H316.325ZM321.725 21.03C322.505 21.03 323.345 20.51 324.245 19.47C325.145 18.43 325.595 17.22 325.595 15.84C325.595 14.46 325.125 13.41 324.185 12.69C323.245 11.97 322.025 11.61 320.525 11.61C319.725 11.61 318.785 11.65 317.705 11.73V20.88C319.145 20.98 320.485 21.03 321.725 21.03Z" fill="#545353"/>
</svg>
